HIERARCHY
ROOT Hips
{
	OFFSET 0.000000 35.082581 0.000000
	CHANNELS 6 Xposition Yposition Zposition Xrotation Yrotation Zrotation 
	JOINT Spine
	{
		OFFSET 0.000000 6.876099 0.125700
		CHANNELS 3 Xrotation Yrotation Zrotation
		JOINT Spine1
		{
			OFFSET 0.000000 5.730043 0.104720
			CHANNELS 3 Xrotation Yrotation Zrotation
			JOINT Spine1_split
			{
				OFFSET 0.000000 5.730043 0.104720
				CHANNELS 3 Xrotation Yrotation Zrotation
				JOINT Spine2
				{
					OFFSET 0.000000 5.730043 0.104720
					CHANNELS 3 Xrotation Yrotation Zrotation
					JOINT Neck
					{
						OFFSET 0.000000 10.314075 0.188496
						CHANNELS 3 Xrotation Yrotation Zrotation
						JOINT Head
						{
							OFFSET 0.000000 7.643700 -2.377400
							CHANNELS 3 Xrotation Yrotation Zrotation
							JOINT HeadTop_End
							{
								OFFSET 0.000000 43.788605 -13.619600
								CHANNELS 3 Xrotation Yrotation Zrotation
								End Site
								{
									OFFSET 0.000000 0.000000 0.000000
								}
							}
						}
					}
					JOINT LeftShoulder
					{
						OFFSET 2.196100 4.412489 0.087492
						CHANNELS 3 Xrotation Yrotation Zrotation
						JOINT LeftShoulder_split
						{
							OFFSET 2.196100 4.412489 0.087492
							CHANNELS 3 Xrotation Yrotation Zrotation
							JOINT LeftArm
							{
								OFFSET 8.771219 -2.981674 -0.026999
								CHANNELS 3 Xrotation Yrotation Zrotation
								JOINT LeftForeArm
								{
									OFFSET 8.512804 0.000000 -0.000000
									CHANNELS 3 Xrotation Yrotation Zrotation
									JOINT LeftHand
									{
										OFFSET 18.484802 0.000000 -0.000000
										CHANNELS 3 Xrotation Yrotation Zrotation
										JOINT LeftHandThumb1
										{
											OFFSET 2.499420 -1.158070 2.653252
											CHANNELS 3 Xrotation Yrotation Zrotation
											JOINT LeftHandThumb2
											{
												OFFSET 2.370079 -1.368366 1.368366
												CHANNELS 3 Xrotation Yrotation Zrotation
												JOINT LeftHandThumb3
												{
													OFFSET 2.676727 -1.545410 1.545409
													CHANNELS 3 Xrotation Yrotation Zrotation
													JOINT LeftHandThumb4
													{
														OFFSET 1.692226 -0.977005 0.977007
														CHANNELS 3 Xrotation Yrotation Zrotation
														End Site
														{
															OFFSET 0.000000 0.000000 0.000000
														}
													}
												}
											}
										}
										JOINT LeftHandIndex1
										{
											OFFSET 7.924831 -0.457527 2.345128
											CHANNELS 3 Xrotation Yrotation Zrotation
											JOINT LeftHandIndex2
											{
												OFFSET 3.643303 0.000000 0.000000
												CHANNELS 3 Xrotation Yrotation Zrotation
												JOINT LeftHandIndex3
												{
													OFFSET 3.810799 0.000000 0.000000
													CHANNELS 3 Xrotation Yrotation Zrotation
													JOINT LeftHandIndex4
													{
														OFFSET 2.403702 0.000000 0.000000
														CHANNELS 3 Xrotation Yrotation Zrotation
														End Site
														{
															OFFSET 0.000000 0.000000 0.000000
														}
													}
												}
											}
										}
										JOINT LeftHandMiddle1
										{
											OFFSET 8.563995 0.000000 -0.000000
											CHANNELS 3 Xrotation Yrotation Zrotation
											JOINT LeftHandMiddle2
											{
												OFFSET 3.861618 0.000000 0.000000
												CHANNELS 3 Xrotation Yrotation Zrotation
												JOINT LeftHandMiddle3
												{
													OFFSET 3.701603 0.000000 0.000000
													CHANNELS 3 Xrotation Yrotation Zrotation
													JOINT LeftHandMiddle4
													{
														OFFSET 2.322544 0.000000 0.000000
														CHANNELS 3 Xrotation Yrotation Zrotation
														End Site
														{
															OFFSET 0.000000 0.000000 0.000000
														}
													}
												}
											}
										}
										JOINT LeftHandRing1
										{
											OFFSET 8.426460 -0.424637 -3.286992
											CHANNELS 3 Xrotation Yrotation Zrotation
											JOINT LeftHandRing2
											{
												OFFSET 3.126408 0.000000 0.000000
												CHANNELS 3 Xrotation Yrotation Zrotation
												JOINT LeftHandRing3
												{
													OFFSET 3.085026 0.000000 0.000000
													CHANNELS 3 Xrotation Yrotation Zrotation
													JOINT LeftHandRing4
													{
														OFFSET 1.644005 0.000000 0.000000
														CHANNELS 3 Xrotation Yrotation Zrotation
														End Site
														{
															OFFSET 0.000000 0.000000 0.000000
														}
													}
												}
											}
										}
									}
								}
							}
						}
					}
					JOINT RightShoulder
					{
						OFFSET -2.196100 4.412496 0.070690
						CHANNELS 3 Xrotation Yrotation Zrotation
						JOINT RightShoulder_split
						{
							OFFSET -2.196100 4.412496 0.070690
							CHANNELS 3 Xrotation Yrotation Zrotation
							JOINT RightArm
							{
								OFFSET -8.771282 -2.981682 -0.094208
								CHANNELS 3 Xrotation Yrotation Zrotation
								JOINT RightForeArm
								{
									OFFSET -8.494598 0.000000 0.000000
									CHANNELS 3 Xrotation Yrotation Zrotation
									JOINT RightHand
									{
										OFFSET -18.483803 0.000000 0.000001
										CHANNELS 3 Xrotation Yrotation Zrotation
										JOINT RightHandThumb1
										{
											OFFSET -2.527351 -1.008072 2.575253
											CHANNELS 3 Xrotation Yrotation Zrotation
											JOINT RightHandThumb2
											{
												OFFSET -2.321518 -1.340328 1.340329
												CHANNELS 3 Xrotation Yrotation Zrotation
												JOINT RightHandThumb3
												{
													OFFSET -2.657753 -1.534454 1.534455
													CHANNELS 3 Xrotation Yrotation Zrotation
													JOINT RightHandThumb4
													{
														OFFSET -1.807510 -1.043568 1.043567
														CHANNELS 3 Xrotation Yrotation Zrotation
														End Site
														{
															OFFSET 0.000000 0.000000 0.000000
														}
													}
												}
											}
										}
										JOINT RightHandIndex1
										{
											OFFSET -8.811420 0.015533 2.887987
											CHANNELS 3 Xrotation Yrotation Zrotation
											JOINT RightHandIndex2
											{
												OFFSET -3.537502 0.000000 0.000000
												CHANNELS 3 Xrotation Yrotation Zrotation
												JOINT RightHandIndex3
												{
													OFFSET -3.356201 0.000000 0.000000
													CHANNELS 3 Xrotation Yrotation Zrotation
													JOINT RightHandIndex4
													{
														OFFSET -1.933098 0.000000 0.000000
														CHANNELS 3 Xrotation Yrotation Zrotation
														End Site
														{
															OFFSET 0.000000 0.000000 0.000000
														}
													}
												}
											}
										}
										JOINT RightHandMiddle1
										{
											OFFSET -8.178135 0.000000 0.000000
											CHANNELS 3 Xrotation Yrotation Zrotation
											JOINT RightHandMiddle2
											{
												OFFSET -3.901302 0.000000 0.000000
												CHANNELS 3 Xrotation Yrotation Zrotation
												JOINT RightHandMiddle3
												{
													OFFSET -3.909599 0.000000 0.000000
													CHANNELS 3 Xrotation Yrotation Zrotation
													JOINT RightHandMiddle4
													{
														OFFSET -2.376003 0.000000 0.000000
														CHANNELS 3 Xrotation Yrotation Zrotation
														End Site
														{
															OFFSET 0.000000 0.000000 0.000000
														}
													}
												}
											}
										}
										JOINT RightHandRing1
										{
											OFFSET -7.559013 0.014137 -2.865403
											CHANNELS 3 Xrotation Yrotation Zrotation
											JOINT RightHandRing2
											{
												OFFSET -3.449306 0.000000 0.000000
												CHANNELS 3 Xrotation Yrotation Zrotation
												JOINT RightHandRing3
												{
													OFFSET -3.362106 0.000000 0.000000
													CHANNELS 3 Xrotation Yrotation Zrotation
													JOINT RightHandRing4
													{
														OFFSET -2.076401 0.000000 0.000000
														CHANNELS 3 Xrotation Yrotation Zrotation
														End Site
														{
															OFFSET 0.000000 0.000000 0.000000
														}
													}
												}
											}
										}
									}
								}
							}
						}
					}
				}
			}
		}
	}
	JOINT LeftUpLeg
	{
		OFFSET 10.205400 -3.823500 0.155100
		CHANNELS 3 Xrotation Yrotation Zrotation
		JOINT LeftLeg
		{
			OFFSET 0.708757 -12.982077 0.567790
			CHANNELS 3 Xrotation Yrotation Zrotation
			JOINT LeftFoot
			{
				OFFSET -0.708756 -10.717838 -2.184338
				CHANNELS 3 Xrotation Yrotation Zrotation
				JOINT LeftToeBase
				{
					OFFSET 0.108149 -7.191104 7.560241
					CHANNELS 3 Xrotation Yrotation Zrotation
					JOINT LeftToe_End
					{
						OFFSET 0.070230 0.081724 4.490308
						CHANNELS 3 Xrotation Yrotation Zrotation
						End Site
						{
							OFFSET 0.000000 0.000000 0.000000
						}
					}
				}
			}
		}
	}
	JOINT RightUpLeg
	{
		OFFSET -10.205400 -3.823500 0.005500
		CHANNELS 3 Xrotation Yrotation Zrotation
		JOINT RightLeg
		{
			OFFSET -0.708756 -12.982134 0.610632
			CHANNELS 3 Xrotation Yrotation Zrotation
			JOINT RightFoot
			{
				OFFSET 0.708754 -10.717769 -1.945823
				CHANNELS 3 Xrotation Yrotation Zrotation
				JOINT RightToeBase
				{
					OFFSET -0.108140 -7.191069 7.372968
					CHANNELS 3 Xrotation Yrotation Zrotation
					JOINT RightToe_End
					{
						OFFSET -0.070227 0.081735 4.479403
						CHANNELS 3 Xrotation Yrotation Zrotation
						End Site
						{
							OFFSET 0.000000 0.000000 0.000000
						}
					}
				}
			}
		}
	}
}
MOTION
Frames: 5
Frame Time: 0.016667
0.103328 28.932667 -1.431488 -14.106510 4.568835 -0.093820 20.016908 -0.127146 0.605737 6.967314 -0.338753 0.679832 0.000000 0.000000 0.000000 6.967514 -0.337003 0.677442 -12.249461 -1.248219 -0.496002 -16.116685 -1.754211 -0.002246 -0.000000 -0.000000 -0.000000 3.082212 -9.945127 -6.811322 0.000000 0.000000 0.000000 -13.959247 -7.908238 -60.295243 69.634216 -63.509134 71.597048 17.167908 -2.491273 -13.648304 2.689259 3.159891 6.593326 -0.080956 21.143658 -2.540014 -0.000006 -0.000007 0.000012 -0.000000 -0.000003 0.000001 -10.621199 2.937298 -19.267716 1.676647 6.185712 -21.756485 0.000001 0.000004 -0.000002 -0.000001 -0.000001 -0.000003 -13.823035 9.936957 -22.469212 6.049002 4.246405 -31.221966 0.000008 0.000000 -0.000006 -0.000000 0.000001 -0.000000 -10.744682 8.325271 -36.571077 3.038181 0.221619 -39.078719 -0.000001 -0.000003 0.000001 -0.000002 -0.000001 0.000000 8.709558 -2.418513 18.823201 0.000000 0.000000 0.000000 -21.494482 12.934320 56.855523 76.344118 65.516985 -70.724580 6.442931 -2.140716 3.544941 2.153172 -3.555304 -6.484364 -0.079147 -21.146011 2.540875 -0.000010 0.000003 0.000002 -0.000001 -0.000001 -0.000001 -10.621245 -2.937081 19.269080 1.668979 -6.188795 21.755252 0.000010 -0.000007 0.000012 -0.000001 -0.000005 -0.000001 -13.688453 -10.244147 24.164185 6.044745 -4.250349 31.223346 0.000010 -0.000001 0.000005 0.000001 -0.000002 -0.000000 -10.744600 -8.325832 36.570004 3.037669 -0.220793 39.079310 0.000012 0.000013 0.000000 -0.000000 0.000000 -0.000000 -21.005731 -6.442457 19.218667 64.972796 -3.857392 -0.028797 -28.580513 1.214401 -16.232525 -0.000134 -0.000000 -0.000005 0.000000 0.000000 -0.000000 -9.659239 -7.636276 -20.800411 62.778482 4.253350 0.105992 -36.926222 -7.504121 14.529189 0.000017 0.000000 -0.000000 0.000000 0.000000 -0.000000 
0.107582 28.916424 -1.417284 -14.111751 4.592536 -0.115284 20.016040 -0.122967 0.618122 6.967178 -0.335987 0.689694 0.000000 0.000000 0.000000 6.967400 -0.333837 0.687154 -12.402456 -1.254037 -0.550726 -15.969515 -1.766948 -0.026611 -0.000001 0.000000 -0.000000 2.956815 -10.038405 -7.341111 0.000000 0.000000 0.000000 -14.073642 -7.895417 -59.003689 69.357258 -63.656093 70.461208 17.123228 -2.624948 -13.215291 2.689242 3.159891 6.593342 -0.287822 20.662241 -2.531888 -0.000000 -0.000009 0.000015 -0.000001 -0.000003 -0.000001 -11.138170 2.712234 -18.389676 1.552152 5.861881 -19.735850 0.000001 0.000006 0.000002 -0.000000 0.000001 -0.000002 -13.879104 10.042379 -21.846835 5.907036 4.051380 -29.917229 0.000008 0.000001 -0.000007 -0.000001 0.000001 0.000000 -10.653154 8.348585 -36.293327 2.916218 0.076521 -38.156766 -0.000001 -0.000003 0.000003 0.000001 0.000001 0.000001 8.710147 -2.421084 18.860230 0.000000 0.000000 0.000000 -21.489481 12.863800 56.693681 76.539359 65.641779 -70.847544 6.461559 -2.179868 3.507919 2.153176 -3.555316 -6.484349 -0.610717 -20.410526 2.900132 -0.000008 -0.000002 -0.000003 -0.000000 0.000006 -0.000000 -10.520704 -3.668408 20.527772 1.742393 -6.421461 23.270933 0.000010 -0.000005 0.000010 -0.000000 0.000001 0.000001 -12.798077 -11.730798 26.093220 7.096442 -4.803713 37.106372 0.000009 -0.000001 0.000006 -0.000002 0.000001 -0.000000 -10.279131 -10.017710 38.435643 3.702689 -0.867346 43.457765 0.000007 0.000008 0.000000 0.000000 -0.000001 0.000001 -21.037102 -6.472033 19.256566 65.130403 -3.853071 -0.026711 -28.702118 1.179410 -16.245934 -0.000142 -0.000002 -0.000005 0.000000 0.000000 -0.000000 -9.616768 -7.658784 -20.801085 62.832249 4.258767 0.105590 -37.009653 -7.509533 14.549403 0.000015 0.000000 -0.000000 0.000000 -0.000001 -0.000000 
0.115182 28.888542 -1.392188 -14.125072 4.664755 -0.152902 20.011882 -0.114868 0.642750 6.966029 -0.327720 0.719248 0.000000 0.000000 0.000000 6.966378 -0.324709 0.716457 -12.555786 -1.289426 -0.611312 -15.824418 -1.789683 -0.122986 -0.000002 0.000000 0.000000 2.764792 -10.227420 -8.150495 0.000000 0.000000 0.000000 -14.313660 -7.958071 -56.721849 68.594367 -63.723350 67.966372 16.833727 -3.061354 -12.252579 2.689272 3.159878 6.593339 -0.630856 19.898827 -2.536164 -0.000000 -0.000003 0.000012 -0.000002 0.000002 0.000003 -12.168910 1.722894 -16.142749 1.361302 5.271963 -16.144860 0.000003 0.000002 0.000003 0.000001 -0.000002 0.000000 -13.999961 10.170336 -20.576846 5.654349 3.687267 -27.544194 0.000007 -0.000000 -0.000006 0.000001 -0.000003 -0.000000 -10.488812 8.375470 -35.525737 2.674444 -0.231046 -36.299628 -0.000001 -0.000005 0.000003 -0.000000 -0.000001 0.000000 8.718474 -2.429197 18.921243 0.000000 0.000000 0.000000 -21.496065 12.656104 56.308301 77.004092 65.942574 -71.153188 6.484118 -2.258949 3.402552 2.153170 -3.555324 -6.484343 -1.483772 -19.373490 3.562822 -0.000009 0.000002 0.000004 0.000004 0.000005 -0.000002 -10.129364 -5.075099 23.066140 1.897906 -6.845667 26.077674 0.000009 -0.000005 0.000010 0.000001 0.000001 -0.000002 -11.051821 -14.266161 29.928287 8.898196 -5.409249 45.950767 0.000011 0.000000 0.000006 0.000001 -0.000001 0.000000 -9.577496 -12.642730 41.718573 4.859887 -1.754932 50.235396 0.000009 -0.000000 -0.000002 0.000001 0.000005 0.000001 -21.113551 -6.533615 19.319593 65.408774 -3.881745 -0.022483 -28.899924 1.123533 -16.246069 -0.000138 -0.000001 -0.000004 0.000000 0.000000 0.000000 -9.506733 -7.720586 -20.796331 62.901411 4.262686 0.105637 -37.157978 -7.533569 14.589906 0.000016 0.000001 -0.000001 0.000000 -0.000001 -0.000000 
0.122610 28.863029 -1.369636 -14.144885 4.773967 -0.183681 20.005011 -0.104078 0.665821 6.959315 -0.313088 0.767878 0.000000 0.000000 0.000000 6.959674 -0.306490 0.764835 -12.549948 -1.367069 -0.625489 -15.846493 -1.813090 -0.313113 0.000000 -0.000000 -0.000000 2.605483 -10.449071 -8.667086 0.000000 0.000000 0.000000 -14.613400 -8.282415 -54.611986 67.543891 -63.362531 64.922738 16.132878 -3.862285 -11.017627 2.689265 3.159890 6.593351 -0.900178 19.338178 -2.567395 -0.000003 -0.000003 0.000012 -0.000001 -0.000003 0.000001 -13.757838 -1.808859 -12.928987 1.209577 4.688503 -12.660387 0.000002 0.000002 0.000002 -0.000001 -0.000000 0.000003 -14.161520 10.155888 -19.030982 5.407120 3.296445 -25.125408 0.000010 0.000002 -0.000005 0.000000 0.000003 -0.000001 -10.326084 8.356978 -34.230903 2.383922 -0.635129 -34.078799 -0.000001 -0.000004 0.000002 -0.000000 0.000001 0.000001 8.730927 -2.444804 18.974090 0.000000 0.000000 0.000000 -21.553775 12.391534 55.888928 77.539094 66.277267 -71.520687 6.490349 -2.336631 3.273597 2.153170 -3.555312 -6.484336 -2.139621 -18.745791 4.295007 -0.000009 0.000000 -0.000000 0.000001 0.000004 -0.000000 -9.428677 -6.650058 26.075067 2.076139 -7.264217 28.901959 0.000008 -0.000004 0.000009 -0.000001 0.000000 -0.000002 -8.933274 -16.558103 34.446495 9.998520 -5.648570 51.048909 0.000010 0.000002 0.000007 0.000001 -0.000003 -0.000000 -9.304914 -14.241865 44.634579 5.737665 -2.268975 54.937739 0.000014 0.000003 0.000002 0.000000 -0.000000 0.000000 -21.195612 -6.657478 19.338613 65.671094 -3.908862 -0.018256 -29.063387 1.101294 -16.244965 -0.000137 -0.000002 -0.000003 0.000000 0.000000 0.000000 -9.355844 -7.795408 -20.781508 62.939701 4.266128 0.106727 -37.302573 -7.594533 14.629008 0.000015 -0.000001 0.000000 0.000000 -0.000001 -0.000000 
0.129658 28.840195 -1.344342 -14.170799 4.956820 -0.222384 19.990997 -0.089492 0.701358 6.937507 -0.293121 0.836673 0.000000 0.000000 0.000000 6.937985 -0.289780 0.834063 -12.503190 -1.468268 -0.642171 -15.970663 -1.831689 -0.574226 -0.000001 0.000000 0.000000 2.430997 -10.738119 -9.036979 0.000000 0.000000 0.000000 -14.974710 -8.818237 -52.449316 66.100119 -62.633695 61.042411 14.978811 -4.932222 -9.474768 2.689255 3.159871 6.593326 -1.125532 18.864356 -2.613945 -0.000001 -0.000007 0.000019 -0.000001 0.000002 -0.000000 -15.221835 -4.964099 -9.603240 1.095741 4.094764 -9.180950 -0.000000 -0.000001 -0.000002 -0.000002 0.000001 0.000001 -14.333531 10.115567 -17.292232 5.162399 2.897176 -22.673656 0.000008 0.000001 -0.000006 0.000001 0.000002 -0.000002 -10.162290 8.353538 -32.651648 2.077960 -1.077248 -31.600666 -0.000001 -0.000003 0.000003 0.000000 -0.000001 -0.000000 8.767414 -2.495609 19.020646 0.000000 0.000000 0.000000 -21.838857 11.822613 55.109849 78.559121 66.918239 -72.239619 6.495923 -2.459336 2.999261 2.153177 -3.555308 -6.484351 -2.804848 -18.655444 4.845513 -0.000009 0.000002 0.000004 -0.000002 -0.000003 0.000004 -8.537988 -8.418561 29.539906 2.305766 -7.723061 32.082181 0.000007 -0.000006 0.000009 -0.000000 -0.000002 -0.000002 -6.748684 -18.554624 39.361151 10.841248 -5.779611 54.859444 0.000015 -0.000001 0.000005 -0.000000 -0.000002 -0.000003 -8.822573 -15.814379 47.777692 6.410652 -2.560224 58.227977 0.000008 0.000009 0.000000 0.000001 -0.000001 -0.000003 -21.291880 -6.897371 19.318890 65.941932 -3.908441 -0.013506 -29.204899 1.094916 -16.266492 -0.000140 -0.000002 -0.000004 0.000000 -0.000001 -0.000000 -9.119810 -7.954098 -20.751278 62.898980 4.271973 0.109675 -37.446177 -7.676322 14.666417 0.000016 -0.000001 0.000001 0.000000 -0.000002 0.000000 
